<?xml version="1.0" standalone="no"?>
<!DOCTYPE svg PUBLIC "-//W3C//DTD SVG 20010904//EN"
 "http://www.w3.org/TR/2001/REC-SVG-20010904/DTD/svg10.dtd">
<svg version="1.0" xmlns="http://www.w3.org/2000/svg"
 width="612.000000pt" height="612.000000pt" viewBox="0 0 612.000000 612.000000"
 preserveAspectRatio="xMidYMid meet">
<metadata>
Created by potrace 1.14, written by Peter Selinger 2001-2017
</metadata>
<g transform="translate(0.000000,612.000000) scale(0.100000,-0.100000)"
fill="#000000" stroke="none">
<path d="M4367 4869 c-46 -13 -107 -68 -107 -96 0 -31 -29 -95 -40 -88 -13 8
-13 -15 1 -54 16 -47 4 -49 -21 -4 l-21 38 7 -40 c11 -66 13 -148 4 -185 l-8
-35 -1 33 c-1 19 -8 49 -17 68 l-16 34 -48 -43 c-29 -26 -42 -43 -34 -45 8 -2
14 -16 14 -35 0 -21 7 -36 20 -45 16 -10 20 -22 19 -60 l-2 -47 -10 37 c-9 31
-17 39 -51 50 -33 11 -42 19 -46 42 -7 40 -31 54 -70 39 -19 -7 -32 -8 -36 -1
-3 5 -13 6 -23 3 -9 -4 -38 -10 -66 -14 -45 -5 -50 -9 -53 -33 -2 -20 -9 -28
-23 -28 -10 0 -19 -5 -19 -11 0 -6 -8 -9 -17 -6 -24 5 -67 -17 -131 -67 -47
-36 -50 -41 -30 -44 49 -6 54 -13 23 -29 -16 -8 -47 -26 -67 -40 -49 -33 -72
-25 -66 22 2 19 1 35 -3 35 -15 0 -37 -67 -32 -97 6 -37 -10 -45 -27 -13 -17
31 -47 24 -93 -24 -23 -24 -51 -46 -62 -50 -11 -3 -26 -15 -33 -26 -12 -20
-12 -21 12 -5 14 9 39 15 58 13 l32 -3 -29 -19 c-16 -11 -35 -19 -43 -19 -7 0
-23 -13 -35 -29 -12 -16 -34 -44 -49 -62 -20 -25 -28 -45 -28 -74 0 -23 5 -44
10 -47 6 -3 10 3 10 14 0 36 42 111 62 111 17 0 17 -2 3 -30 -18 -35 -19 -46
-2 -33 14 12 117 14 117 3 0 -4 -13 -13 -29 -20 -16 -6 -39 -22 -52 -36 -25
-27 -54 -33 -45 -9 10 26 -9 16 -27 -14 -28 -48 -16 -99 17 -72 11 9 15 6 20
-16 4 -16 17 -36 29 -45 14 -11 19 -20 12 -26 -9 -9 -415 -167 -1490 -579
-918 -352 -906 -348 -933 -321 -20 20 -26 0 -8 -26 21 -33 20 -39 -4 -31 -19
6 -146 -43 -136 -52 3 -3 34 5 71 17 51 17 69 19 80 10 16 -13 35 -5 35 15 0
8 9 19 20 25 19 10 607 236 1095 420 143 54 493 186 779 295 l519 196 26 -25
c27 -26 55 -33 65 -17 13 20 44 -2 56 -39 15 -46 6 -85 -13 -59 -7 8 -20 18
-29 22 -10 3 -18 14 -18 23 0 16 -2 16 -20 -1 -25 -22 -25 -38 0 -92 l19 -42
-22 12 c-12 7 -30 18 -39 26 -23 18 -22 14 3 -44 11 -25 19 -49 16 -51 -3 -3
-21 14 -40 37 -36 41 -36 41 -42 17 -4 -14 -5 -34 -3 -44 2 -15 -3 -19 -24
-19 -32 1 -35 -7 -13 -25 11 -9 13 -16 5 -24 -5 -5 -10 -23 -10 -38 0 -26 3
-28 38 -28 l37 -1 -24 -20 c-15 -12 -33 -18 -46 -15 -16 4 -22 -1 -31 -30 -11
-35 -11 -35 15 -30 23 5 20 0 -22 -38 -43 -39 -47 -46 -36 -63 10 -16 9 -26
-6 -54 -9 -19 -20 -47 -24 -64 -6 -27 -12 -31 -51 -35 -41 -5 -46 -8 -56 -40
-7 -21 -8 -46 -3 -63 7 -24 6 -28 -8 -23 -41 16 -109 26 -135 21 -26 -6 -68
-47 -68 -67 0 -5 8 -12 18 -15 23 -9 30 -22 25 -44 -8 -30 -33 -22 -48 14 -26
63 -37 63 -89 1 -25 -31 -46 -65 -46 -77 0 -19 -1 -19 -18 -4 -23 21 -42 22
-42 2 0 -8 -6 -12 -15 -9 -23 9 -82 -15 -185 -74 -124 -72 -234 -147 -286
-197 -36 -35 -42 -47 -48 -97 -4 -32 -16 -68 -26 -81 -19 -24 -19 -25 1 -43
29 -26 46 -58 27 -52 -7 3 -18 -2 -24 -11 -10 -13 -14 -13 -37 2 -19 12 -38
15 -70 11 -52 -7 -66 6 -43 41 9 13 16 34 16 45 0 32 -41 22 -58 -13 -13 -27
-15 -27 -32 -12 -16 14 -26 15 -80 5 -34 -6 -68 -9 -76 -6 -8 3 -126 77 -264
166 -138 88 -253 160 -256 160 -6 0 103 -102 152 -141 41 -33 198 -140 224
-153 8 -4 -5 11 -30 34 -50 47 -45 45 50 -15 136 -87 152 -96 146 -87 -3 6 2
13 13 17 21 6 69 -12 89 -35 11 -13 13 -11 7 12 -7 37 -1 35 29 -8 13 -20 35
-42 48 -48 14 -7 24 -22 26 -39 3 -24 7 -27 41 -27 20 0 46 -7 57 -15 27 -20
36 -19 30 5 -3 11 -9 30 -12 41 -6 20 -3 21 22 15 36 -9 55 -26 30 -26 -16 0
-16 -2 -5 -16 9 -11 22 -14 46 -9 24 4 33 2 33 -7 0 -18 -11 -33 -32 -44 -16
-8 -11 -15 32 -47 49 -37 69 -73 33 -60 -34 12 -8 -5 137 -90 208 -121 336
-187 368 -188 15 0 36 -5 47 -10 14 -6 1 -8 -45 -6 -62 2 -77 9 -270 111 -170
90 -474 263 -568 324 -12 8 -22 12 -22 9 0 -7 238 -161 548 -352 150 -92 270
-170 268 -172 -2 -2 -30 8 -61 22 -32 14 -59 24 -61 22 -5 -5 234 -137 276
-152 117 -41 190 3 150 92 -9 22 -30 49 -45 61 -29 23 -125 55 -210 70 -35 6
-102 38 -220 106 -94 54 -171 99 -173 101 -1 1 3 14 9 29 10 21 10 31 -1 51
-10 19 -10 34 -2 67 6 24 14 57 17 75 8 40 124 146 250 228 50 32 119 77 155
100 82 53 167 109 200 132 16 10 10 1 -15 -26 -22 -24 -62 -58 -90 -76 -27
-18 -91 -71 -142 -118 -50 -47 -100 -88 -111 -91 -17 -6 -50 -56 -36 -56 3 0
19 10 36 21 44 32 52 16 53 -101 0 -94 -1 -97 -15 -71 -8 15 -21 26 -27 24 -9
-3 -13 9 -13 43 l0 48 -38 -37 c-36 -35 -82 -50 -82 -26 0 6 -7 8 -16 5 -8 -3
-27 2 -41 11 -26 17 -26 17 -14 -5 8 -14 8 -22 1 -22 -24 0 17 -40 56 -55 33
-13 44 -23 49 -46 5 -23 12 -29 32 -29 38 0 99 -39 119 -76 10 -18 16 -36 12
-39 -3 -3 -42 10 -88 30 -46 20 -84 34 -86 32 -2 -2 255 -133 570 -292 l573
-290 71 0 c92 0 111 15 93 74 -7 25 -24 50 -44 65 -40 30 -116 50 -162 43 -62
-10 -137 15 -470 160 -82 36 -163 77 -178 92 l-28 27 36 -4 c32 -4 35 -2 35
22 0 36 -45 82 -65 66 -11 -9 -16 -7 -25 9 -8 16 -17 20 -38 15 -19 -4 -23 -3
-13 4 8 6 11 17 6 32 -6 20 -4 21 17 15 12 -4 35 -14 50 -21 25 -13 27 -12 34
8 5 17 0 27 -20 43 -29 23 -33 35 -11 35 27 0 16 26 -25 53 -24 17 -24 17 -2
17 12 0 22 4 22 9 0 9 -49 54 -86 79 -16 11 -13 12 25 7 39 -5 43 -4 31 10
-10 12 -10 15 3 15 20 0 59 -50 53 -67 -3 -7 0 -24 6 -38 l11 -24 41 23 c23
13 55 27 71 31 18 4 58 34 97 73 38 37 101 96 142 132 41 36 77 75 81 87 5 15
20 24 51 32 24 6 58 24 76 40 18 15 51 38 74 49 46 24 107 113 118 175 7 35
21 52 102 124 12 10 43 45 70 78 27 32 57 67 67 77 9 10 17 22 17 28 0 5 16
32 35 59 19 26 35 60 35 75 0 17 7 29 18 32 36 12 84 40 101 59 10 11 30 52
45 90 22 60 38 82 102 145 42 41 100 107 130 147 47 63 79 93 98 93 3 0 6 -25
6 -55 0 -33 4 -55 11 -55 6 0 1 -16 -12 -36 -21 -35 -22 -38 -6 -83 9 -27 18
-100 21 -180 5 -106 10 -136 22 -146 15 -10 15 -18 -1 -89 -13 -57 -14 -81 -6
-89 6 -6 11 -19 11 -29 0 -12 16 -26 48 -40 26 -13 49 -24 51 -25 2 -2 23
-236 47 -520 36 -447 40 -520 28 -534 -21 -23 -17 -37 16 -54 41 -21 59 -20
53 5 -4 16 -2 19 11 14 9 -3 16 -1 16 5 0 10 -10 21 -42 44 -14 10 -22 88 -57
526 -23 283 -40 515 -39 516 2 1 24 14 51 29 83 48 101 133 42 210 -19 25 -28
43 -20 39 12 -4 15 6 15 50 0 72 -13 107 -41 107 -20 0 -20 0 3 28 13 16 26
25 29 19 4 -5 15 3 25 19 27 40 24 199 -3 220 -15 11 -16 15 -4 23 10 7 6 11
-18 16 -43 9 -39 27 7 24 63 -3 67 -1 47 21 -13 14 -14 20 -5 20 9 0 6 8 -8
23 -27 29 -27 43 -2 85 13 21 16 32 7 32 -6 0 -18 4 -26 9 -10 7 -5 20 27 60
59 75 85 150 77 226 -6 50 -16 74 -61 143 -49 74 -56 81 -75 72 -33 -18 -42
-6 -17 21 22 24 23 30 17 105 -4 43 -8 83 -8 88 -1 4 -17 -6 -37 -24 -40 -35
-61 -33 -23 2 34 32 66 117 48 129 -21 13 -4 21 23 10 24 -9 26 -7 41 43 20
64 22 144 4 165 -8 9 -20 32 -27 51 -29 76 -63 119 -114 141 -58 25 -181 34
-239 18z m-163 -739 c83 -87 91 -112 56 -180 -11 -22 -22 -40 -24 -40 -2 0 3
26 10 57 13 56 12 59 -11 95 -13 20 -41 49 -62 65 -51 38 -55 44 -35 66 17 19
17 19 20 1 2 -11 23 -39 46 -64z m-686 -286 c-15 -31 -28 -63 -28 -71 0 -11
-5 -11 -30 2 l-31 16 26 31 c18 21 25 40 22 55 -4 21 -1 23 33 23 l37 0 -29
-56z m34 -156 c2 -21 8 -32 16 -30 17 3 11 -20 -6 -26 -13 -4 -32 37 -32 69 0
32 19 21 22 -13z m1025 -875 c7 -3 18 5 25 16 15 25 28 27 28 6 0 -8 -11 -22
-24 -30 -31 -21 -66 -5 -66 29 0 34 14 42 20 10 3 -15 10 -29 17 -31z m-1176
-79 c-12 -15 -21 -30 -21 -35 0 -14 -50 -83 -67 -93 -20 -11 -17 -5 51 97 28
42 52 73 54 67 2 -5 -6 -22 -17 -36z"/>
<path d="M1720 1866 c0 -3 9 -10 20 -16 11 -6 20 -8 20 -6 0 3 -9 10 -20 16
-11 6 -20 8 -20 6z"/>
</g>
</svg>
